<svg width="246" height="60" xmlns="http://www.w3.org/2000/svg"><g fill="#1D1D1B" fill-rule="evenodd"><path d="M64.816 26.546c-.221 0-.443.003-.664 0-1.853-.026-3.39 1.082-3.039 2.927.156.818.36 1.544 1.107 1.878.756.338 1.71.156 2.553 0 .912-.168 1.457-.303 2.224-1.275.647-.82 1.384-1.452.619-2.178-.402-.38-1.005-.585-1.553-.748-.385-.114-.829-.604-1.247-.604m23.352 4.133c.82 1.058 2.1 1.264 3.408 1.404 1.078.117 1.928-.243 2.489-1.221.58-1.01.466-2.011-.23-2.857-.872-1.06-1.866-2.017-2.787-2.994l-2.88 5.668M12.523 42.021c1.346.052 3.683-.236 4.888-.983 2.257-1.4 3.247-2.159 4.393-4.639.316-.682.7-2.152.789-2.888.083-.687-.172-.74-1.45-.74-.818.105-1.483.208-2.425.29-1.41.153-3.033.579-4.273 1.11-2.966 1.273-3.5 2.28-4.498 4.691-.23 1.244-.014 1.62.162 1.973.486.977 1.459 1.084 2.414 1.186m33.505 13.717c1.264-1.285 1.755-2.806 1.957-4.418.263-2.103.425-4.218.656-6.325.495-4.521-.133-8.844-2.253-12.916-.296-.568-.783-.388-1.23-.328-.335.045-.538.188-.547.619-.088 4.094-.238 8.186-.31 12.28-.064 3.757.414 7.444 1.727 11.088m40.57-23.21c-1.131.793-2.215 1.614-3.356 2.344-2.572 1.644-5.228.743-6.364-2.145-.65-1.651-.746-3.4-.768-5.154-.015-1.108-.05-1.17-1.156-1.192a8.427 8.427 0 0 0-1.684.142c-1.062.195-2.115.445-3.179.674-.003.028-.03.09-.011.12.866 1.788-.476 3.057-1.55 4.262-1.228 1.38-1.84 1.633-3.17 1.97-2.31.586-4.191.959-5.622-.725-.59-.695-1.206-2.394-1.594-3.307-3.005 1.283-6.267.731-9.284 1.66.521 1.393 1.18 2.7 1.498 4.084 1.215 5.269 1.784 10.588.746 15.965-.138.714-.38 1.412-.62 2.101-.52 1.495-1.09 2.974-1.603 4.471-.57 1.662-2.61 2.662-4.251 1.99-.286-.116-.534-.517-.644-.838a134.442 134.442 0 0 1-1.737-5.35c-1.13-3.806-1.136-7.693-.865-11.612.176-2.529.171-5.07.263-7.606.018-.51.165-2.656.207-3.164.055-.675-.258-1.185-.886-.935-3.365 1.193-6.63 2.562-10.123 2.64-1.178.025-2.86.235-4.038.171-.444-.024-.55-.285-.628.147-.164.898-.386 2.028-.708 2.878-1.213 3.2-3.517 5.502-6.261 7.339-2.457 1.644-5.133 1.853-8.175 1.354-1.657-.271-3.02-1.098-3.892-2.25-.213-.281-.48-1.04-.519-1.435-.256-2.6.826-4.588 2.48-6.385 1.776-1.93 3.526-2.7 5.837-3.705 1.962-.853 4.882-1.076 6.914-1.293.895-.17.95-.398.876-1.332-.132-1.677-1.191-2.488-2.36-3.554-1.41-1.286-3.144-1.76-5.026-2.093a23.244 23.244 0 0 0-1.87-.27c-2.16-.212-3.71.722-5.386 1.78-1.107.697-2.247.995-3.39.215-.4-.273-.77-.801-.866-1.273-.126-.62.507-.827.98-1.04 1.703-.766 3.436-1.47 5.105-2.306 1.763-1.49 4.06-3.503 4.418-6.472.297-2.473-1.154-3.232-3.395-3.035-2.14.189-3.489.588-5.189 2.095-.664.589-1.244 1.274-1.867 1.91-.75.766-2.037 1.093-2.992.772-.817-.275-1.182-1.46-.628-2.125.563-.676 1.258-1.245 1.93-1.82a9.082 9.082 0 0 1 1.44-1.03c2.1-1.186 4.336-2.072 6.705-2.44 2.146-.332 4.264-.107 6.119 1.26 1.341.988 1.758 2.443 1.652 3.957-.079 1.13-.454 2.316-.988 3.317-.587 1.1-1.51 2.016-2.282 3.015-.07.09-.12.197-.284.474 6.627.25 10.536 3.625 11.686 10.04 2.809.201 5.72-.05 8.344-.61 2.343-.5 4.17-1.413 5.98-2.11 1.872-.717 2.424-2.015 2.767-4.005 1.37-7.963 2.385-13.645 3.795-21.6.18-1.02.743-1.502 1.64-1.462.915.042 1.606.627 1.623 1.603.044 2.446.055 4.895-.025 7.34-.101 3.096-.332 6.189-1.198 9.183-.788 2.725-1.017 5.832-2.141 7.957-.353 1.13-.116 1.75 1.051 1.935 1.154.182 2.358.242 3.517.123 1.71-.177 3.4-.548 5.095-.858 1.263-.231 2.276-.893 2.812-2.084.918-2.045 2.635-3.093 4.534-3.949 1.393-.627 2.645-.409 3.705.702.424.444.823.949 1.09 1.498.293.6.67.757 1.28.673 1.072-.147 2.156-.213 3.226-.372 1.776-.262 3.002-1.187 3.616-2.98.46-1.341.872-1.447 2.192-.912 1.299.526 1.486.894 1.124 2.292-.467 1.806-1.04 3.59-1.388 5.42-.181.952-.078 1.997.077 2.97.29 1.82 2.052 2.785 3.716 1.509 2.625-2.013 4.58-4.52 5.466-7.778.16-.586.07-1.239.111-1.86.088-1.34.67-1.956 1.983-1.982.317-.006.725.196.946.438a210.99 210.99 0 0 1 3.762 4.304c.387.45.778.909 1.09 1.412 1.337 2.154 1.28 4.433-.121 6.3-1.111 1.48-3.63 2.158-5.75 1.504a11.313 11.313 0 0 1-1.905-.798c-.583-.305-1.116-.711-1.66-1.065m105.757-2.373c-.026 2.186 1.205 3.215 3.066 2.628 1.898-.598 3.344-1.826 4.206-3.653.223-.472.27-1.057.28-1.593.008-.555-.267-.973-.87-1.14-.642-.177-1.26-.437-1.892-.651-.938-.318-1.768-.103-2.452.593-.523.53-.989 1.118-1.492 1.669-.602.66-.867 1.439-.846 2.147m-16.41 9.625c-.053-.932-.067-1.81-.176-2.675-.033-.264-.288-.63-.518-.702-.23-.072-.632.084-.826.276-.684.684-1.315 1.424-1.96 2.149-1.723 1.934-3.12 4.031-3.7 6.639-.664 2.986-.838 5.925.32 8.826.463 1.16 1.157 2.142 2.238 2.812.403.25.692.217.88-.24.273-.666.6-1.318.793-2.008.576-2.057 1.074-4.137 1.647-6.196.814-2.926 1.145-5.917 1.303-8.88m61.041-14.803c-2.085.178-3.862.69-4.86 2.577-.567 1.074-.944 2.248-1.451 3.357-.496 1.084-.944 2.212-1.59 3.202-2.235 3.416-6.86 2.35-8.39.062-.442-.66-.837-1.352-1.313-2.127-.542.397-1.11.782-1.642 1.21-2.302 1.845-5.848.959-6.795-1.849-.477-1.416-.541-2.978-.75-4.48-.07-.508-.01-1.035-.01-1.57l-7.727 1.211c0 1.074.065 2.29-.02 3.493-.069.97-.544 1.815-1.26 2.483-1.62 1.511-3.395 2.776-5.612 3.198-2.899.55-5.101-.74-6.02-3.57-.383-1.178-.573-2.419-.865-3.693-3.167 1.173-6.478 2.073-9.235 4.215-.234.18-.468.545-.466.823.037 4.678-.75 9.26-1.6 13.827-.5 2.695-1.142 5.37-1.861 8.013-.33 1.21-.951 2.349-1.527 3.474-.434.848-1.231 1.22-2.174 1.16-1.847-.117-3.347-.833-4.19-2.609-1.065-2.246-1.52-4.643-1.605-7.108-.092-2.71.05-5.39 1.175-7.933 1.496-3.38 3.74-6.123 6.817-8.116 1.24-.804 1.975-1.665 2.044-3.281.085-2.01.604-3.995.851-6.001.113-.908-.006-1.842.033-2.762.047-1.115.15-2.228.228-3.341.043-.6.47-.869.956-.84.698.042 1.44.121 2.067.403 1.103.495 1.183.959.937 2.14-.514 2.465-.954 4.946-1.428 7.42-.119.621.233.917.756.952.431.029.909-.014 1.304-.176a628.91 628.91 0 0 0 8.76-3.688c.321-.138.651-.37.86-.648 1.362-1.814 3.162-3.086 5.08-4.2.285-.165.778-.233 1.053-.096.847.419 1.882.685 1.867 2.006-.008.666.358 1.059 1.158.979.68-.067 1.38.065 2.07.12 2.595.208 5.077-.257 7.454-1.3.264-.116.505-.373.663-.625.37-.589.622-1.264 1.049-1.802.206-.258.807-.499 1.039-.377a8.123 8.123 0 0 1 1.927 1.424c.198.198.173.762.07 1.103-.186.615-.489 1.199-.776 1.778-.96 1.938-1.05 3.989-.76 6.076.176 1.272 1.19 1.866 2.402 1.445 1.338-.464 2.346-1.29 2.672-2.756.443-1.99.84-3.992 1.306-5.978.26-1.11 1.118-1.558 2.202-1.236.603.179 1.003.543.974 1.233-.04.972-.113 1.943-.128 2.916-.028 1.794-.074 3.591-.01 5.383.029.797.357 1.547 1.056 2.067 1.12.832 2.26.686 3.091-.457.366-.502.753-1.015.986-1.583.752-1.84 1.429-3.71 2.157-5.558a2.03 2.03 0 0 1 .511-.703c2.252-2.083 5-2.608 7.927-2.512.258.008.557.213.75.413.485.498.938 1.031 1.364 1.582.12.154.17.433.132.63-.21 1.073-.385 2.16-.708 3.198-.51 1.64-1.133 3.245-1.698 4.867a4.73 4.73 0 0 0-.212.871c-.115.785.156 1.113.927 1.195 1.34.144 2.5-.262 3.476-1.178.525-.493 1.008-1.032 1.505-1.555.434-.457.889-.84 1.548-.418.433.278.628 1.203.392 1.784-.744 1.836-4.783 4.563-6.758 4.562-2.808 0-4.724-2.149-4.182-4.928.447-2.294 1.163-4.534 1.76-6.8l.267-.998m-98.956-.812c.083-1.197-.973-2.05-1.738-1.623-1.692.946-3.348 1.963-4.508 3.625-.67.962-.676 1.985-.337 3.038.255.792.842 1.021 1.515.549 1.656-1.165 3.226-2.446 4.378-4.162.342-.51.544-1.118.69-1.427m-25.413 8.042c1.89.06 3.41-.436 4.585-1.656 1.823-1.893 2.87-4.285 3.786-6.733.123-.325.179-.688.207-1.038.079-.974-.21-1.812-1.007-2.395-.725-.532-1.46-.223-2.092.163-1.06.646-2.077 1.373-3.07 2.124-.267.203-.467.593-.558.937a216.45 216.45 0 0 0-1.586 6.325c-.163.698-.173 1.434-.265 2.273m24.935-2.77c-.904.696-1.717 1.36-2.57 1.967-.627.446-1.269.908-1.968 1.202-1.632.687-3.272.027-4.073-1.606-.296-.603-.457-1.275-.705-1.992-.841.387-1.696.76-2.535 1.168-3.489 1.694-6.96 3.43-10.627 4.699-.68.234-1.366.456-2.062.63-.933.232-1.548.85-1.677 2.014-.43 3.881-.982 7.749-1.381 11.633-.314 3.052-.474 6.12-.692 9.18-.045.621.124 1.347-.671 1.593-.876.272-2.198-.234-2.526-.924-.06-.127-.073-.295-.06-.441.357-4.12.726-8.242 1.08-12.363.162-1.87.32-3.742.434-5.615.167-2.729.861-5.348 1.483-7.987a296.075 296.075 0 0 0 1.655-7.491c.237-1.137.342-2.303.563-3.446.061-.317.252-.76.497-.865 2.206-.941 4.242-2.39 6.652-2.722 3.304-.454 5.263 1.273 5.607 4.722.15 1.51-.05 2.989-.673 4.39-.117.264-.17.558-.319 1.06.662-.208 1.172-.299 1.619-.522 2.178-1.086 4.15-2.418 5.573-4.525 1.417-2.097 3.606-3.218 5.876-3.909 1.668-.509 3.409.132 4.812 1.236.95.747.848 1.89.553 2.955-.348 1.258-.387 2.502-.02 3.75.464 1.57 1.515 2.537 3.043 2.927.278.07.685-.067.931-.252 2.6-1.958 4.251-4.502 4.515-7.874.016-.202.042-.404.07-.605.208-1.534.664-1.94 2.212-1.995.984-.034 1.971-.034 2.949-.132 1.646-.163 2.834 1.513 3.053 2.803.212 1.256.163 2.573.112 3.858-.063 1.595-.326 3.183-.356 4.777-.034 1.758.448 2.097 1.992 1.311 1.019-.52 1.897-1.345 2.803-2.078.425-.343.744-.822 1.16-1.18.195-.167.623-.345.74-.25.216.174.396.553.378.833-.026.385-.187.799-.398 1.127a12.022 12.022 0 0 1-4.747 4.278c-1.204.605-2.525.455-3.746-.114-.248-.116-.514-.453-.559-.723-.22-1.345-.458-2.697-.52-4.055-.06-1.263.132-2.536.14-3.805a11.81 11.81 0 0 0-.221-2.328c-.185-.926-.932-.855-1.646-.847-.674.007-.775.5-.827.966-.416 3.721-2.717 6.295-5.136 8.756-1.11 1.13-2.602 1.306-4.023.687-1.125-.49-2.17-1.2-3.199-1.891-.868-.583-1.662-1.28-2.565-1.986M80.68 14.961c-.87.156-1.438-.166-1.84-.844-.052-.087-.115-.167-.17-.25-1.119-1.692-.87-2.604 1-3.358.906-.364 1.856-.847 2.83-.167.21.147.518.41.5.589-.109 1.023-.175 2.083-.506 3.038-.27.78-1.026 1.155-1.813.992M178.96 7c.943.439 1.911.828 2.807 1.355.203.119.29.765.194 1.09-.384 1.304-1.191 2.217-2.496 2.51-.775.173-1.41-.159-1.861-.813-.61-.887-.808-1.867-.36-2.909.317-.74.89-1.076 1.715-1.233"/><path d="M64.816 26.546c-.221 0-.443.003-.664 0-1.853-.026-3.39 1.082-3.039 2.927.156.818.36 1.544 1.107 1.878.756.338 1.71.156 2.553 0 .912-.168 1.457-.303 2.224-1.275.647-.82 1.384-1.452.619-2.178-.402-.38-1.005-.585-1.553-.748-.385-.114-.829-.604-1.247-.604m23.352 4.133c.82 1.058 2.1 1.264 3.408 1.404 1.078.117 1.928-.243 2.489-1.221.58-1.01.466-2.011-.23-2.857-.872-1.06-1.866-2.017-2.787-2.994l-2.88 5.668M12.523 42.021c1.346.052 3.683-.236 4.888-.983 2.257-1.4 3.247-2.159 4.393-4.639.316-.682.7-2.152.789-2.888.083-.687-.172-.74-1.45-.74-.818.105-1.483.208-2.425.29-1.41.153-3.033.579-4.273 1.11-2.966 1.273-3.5 2.28-4.498 4.691-.23 1.244-.014 1.62.162 1.973.486.977 1.459 1.084 2.414 1.186m33.505 13.717c1.264-1.285 1.755-2.806 1.957-4.418.263-2.103.425-4.218.656-6.325.495-4.521-.133-8.844-2.253-12.916-.296-.568-.783-.388-1.23-.328-.335.045-.538.188-.547.619-.088 4.094-.238 8.186-.31 12.28-.064 3.757.414 7.444 1.727 11.088m40.57-23.21c-1.131.793-2.215 1.614-3.356 2.344-2.572 1.644-5.228.743-6.364-2.145-.65-1.651-.746-3.4-.768-5.154-.015-1.108-.05-1.17-1.156-1.192a8.427 8.427 0 0 0-1.684.142c-1.062.195-2.115.445-3.179.674-.003.028-.03.09-.011.12.866 1.788-.476 3.057-1.55 4.262-1.228 1.38-1.84 1.633-3.17 1.97-2.31.586-4.191.959-5.622-.725-.59-.695-1.206-2.394-1.594-3.307-3.005 1.283-6.267.731-9.284 1.66.521 1.393 1.18 2.7 1.498 4.084 1.215 5.269 1.784 10.588.746 15.965-.138.714-.38 1.412-.62 2.101-.52 1.495-1.09 2.974-1.603 4.471-.57 1.662-2.61 2.662-4.251 1.99-.286-.116-.534-.517-.644-.838a134.442 134.442 0 0 1-1.737-5.35c-1.13-3.806-1.136-7.693-.865-11.612.176-2.529.171-5.07.263-7.606.018-.51.165-2.656.207-3.164.055-.675-.258-1.185-.886-.935-3.365 1.193-6.63 2.562-10.123 2.64-1.178.025-2.86.235-4.038.171-.444-.024-.55-.285-.628.147-.164.898-.386 2.028-.708 2.878-1.213 3.2-3.517 5.502-6.261 7.339-2.457 1.644-5.133 1.853-8.175 1.354-1.657-.271-3.02-1.098-3.892-2.25-.213-.281-.48-1.04-.519-1.435-.256-2.6.826-4.588 2.48-6.385 1.776-1.93 3.526-2.7 5.837-3.705 1.962-.853 4.882-1.076 6.914-1.293.895-.17.95-.398.876-1.332-.132-1.677-1.191-2.488-2.36-3.554-1.41-1.286-3.144-1.76-5.026-2.093a23.244 23.244 0 0 0-1.87-.27c-2.16-.212-3.71.722-5.386 1.78-1.107.697-2.247.995-3.39.215-.4-.273-.77-.801-.866-1.273-.126-.62.507-.827.98-1.04 1.703-.766 3.436-1.47 5.105-2.306 1.763-1.49 4.06-3.503 4.418-6.472.297-2.473-1.154-3.232-3.395-3.035-2.14.189-3.489.588-5.189 2.095-.664.589-1.244 1.274-1.867 1.91-.75.766-2.037 1.093-2.992.772-.817-.275-1.182-1.46-.628-2.125.563-.676 1.258-1.245 1.93-1.82a9.082 9.082 0 0 1 1.44-1.03c2.1-1.186 4.336-2.072 6.705-2.44 2.146-.332 4.264-.107 6.119 1.26 1.341.988 1.758 2.443 1.652 3.957-.079 1.13-.454 2.316-.988 3.317-.587 1.1-1.51 2.016-2.282 3.015-.07.09-.12.197-.284.474 6.627.25 10.536 3.625 11.686 10.04 2.809.201 5.72-.05 8.344-.61 2.343-.5 4.17-1.413 5.98-2.11 1.872-.717 2.424-2.015 2.767-4.005 1.37-7.963 2.385-13.645 3.795-21.6.18-1.02.743-1.502 1.64-1.462.915.042 1.606.627 1.623 1.603.044 2.446.055 4.895-.025 7.34-.101 3.096-.332 6.189-1.198 9.183-.788 2.725-1.017 5.832-2.141 7.957-.353 1.13-.116 1.75 1.051 1.935 1.154.182 2.358.242 3.517.123 1.71-.177 3.4-.548 5.095-.858 1.263-.231 2.276-.893 2.812-2.084.918-2.045 2.635-3.093 4.534-3.949 1.393-.627 2.645-.409 3.705.702.424.444.823.949 1.09 1.498.293.6.67.757 1.28.673 1.072-.147 2.156-.213 3.226-.372 1.776-.262 3.002-1.187 3.616-2.98.46-1.341.872-1.447 2.192-.912 1.299.526 1.486.894 1.124 2.292-.467 1.806-1.04 3.59-1.388 5.42-.181.952-.078 1.997.077 2.97.29 1.82 2.052 2.785 3.716 1.509 2.625-2.013 4.58-4.52 5.466-7.778.16-.586.07-1.239.111-1.86.088-1.34.67-1.956 1.983-1.982.317-.006.725.196.946.438a210.99 210.99 0 0 1 3.762 4.304c.387.45.778.909 1.09 1.412 1.337 2.154 1.28 4.433-.121 6.3-1.111 1.48-3.63 2.158-5.75 1.504a11.313 11.313 0 0 1-1.905-.798c-.583-.305-1.116-.711-1.66-1.065m105.757-2.373c-.026 2.186 1.205 3.215 3.066 2.628 1.898-.598 3.344-1.826 4.206-3.653.223-.472.27-1.057.28-1.593.008-.555-.267-.973-.87-1.14-.642-.177-1.26-.437-1.892-.651-.938-.318-1.768-.103-2.452.593-.523.53-.989 1.118-1.492 1.669-.602.66-.867 1.439-.846 2.147m-16.41 9.625c-.053-.932-.067-1.81-.176-2.675-.033-.264-.288-.63-.518-.702-.23-.072-.632.084-.826.276-.684.684-1.315 1.424-1.96 2.149-1.723 1.934-3.12 4.031-3.7 6.639-.664 2.986-.838 5.925.32 8.826.463 1.16 1.157 2.142 2.238 2.812.403.25.692.217.88-.24.273-.666.6-1.318.793-2.008.576-2.057 1.074-4.137 1.647-6.196.814-2.926 1.145-5.917 1.303-8.88m61.041-14.803c-2.085.178-3.862.69-4.86 2.577-.567 1.074-.944 2.248-1.451 3.357-.496 1.084-.944 2.212-1.59 3.202-2.235 3.416-6.86 2.35-8.39.062-.442-.66-.837-1.352-1.313-2.127-.542.397-1.11.782-1.642 1.21-2.302 1.845-5.848.959-6.795-1.849-.477-1.416-.541-2.978-.75-4.48-.07-.508-.01-1.035-.01-1.57l-7.727 1.211c0 1.074.065 2.29-.02 3.493-.069.97-.544 1.815-1.26 2.483-1.62 1.511-3.395 2.776-5.612 3.198-2.899.55-5.101-.74-6.02-3.57-.383-1.178-.573-2.419-.865-3.693-3.167 1.173-6.478 2.073-9.235 4.215-.234.18-.468.545-.466.823.037 4.678-.75 9.26-1.6 13.827-.5 2.695-1.142 5.37-1.861 8.013-.33 1.21-.951 2.349-1.527 3.474-.434.848-1.231 1.22-2.174 1.16-1.847-.117-3.347-.833-4.19-2.609-1.065-2.246-1.52-4.643-1.605-7.108-.092-2.71.05-5.39 1.175-7.933 1.496-3.38 3.74-6.123 6.817-8.116 1.24-.804 1.975-1.665 2.044-3.281.085-2.01.604-3.995.851-6.001.113-.908-.006-1.842.033-2.762.047-1.115.15-2.228.228-3.341.043-.6.47-.869.956-.84.698.042 1.44.121 2.067.403 1.103.495 1.183.959.937 2.14-.514 2.465-.954 4.946-1.428 7.42-.119.621.233.917.756.952.431.029.909-.014 1.304-.176a628.91 628.91 0 0 0 8.76-3.688c.321-.138.651-.37.86-.648 1.362-1.814 3.162-3.086 5.08-4.2.285-.165.778-.233 1.053-.096.847.419 1.882.685 1.867 2.006-.008.666.358 1.059 1.158.979.68-.067 1.38.065 2.07.12 2.595.208 5.077-.257 7.454-1.3.264-.116.505-.373.663-.625.37-.589.622-1.264 1.049-1.802.206-.258.807-.499 1.039-.377a8.123 8.123 0 0 1 1.927 1.424c.198.198.173.762.07 1.103-.186.615-.489 1.199-.776 1.778-.96 1.938-1.05 3.989-.76 6.076.176 1.272 1.19 1.866 2.402 1.445 1.338-.464 2.346-1.29 2.672-2.756.443-1.99.84-3.992 1.306-5.978.26-1.11 1.118-1.558 2.202-1.236.603.179 1.003.543.974 1.233-.04.972-.113 1.943-.128 2.916-.028 1.794-.074 3.591-.01 5.383.029.797.357 1.547 1.056 2.067 1.12.832 2.26.686 3.091-.457.366-.502.753-1.015.986-1.583.752-1.84 1.429-3.71 2.157-5.558a2.03 2.03 0 0 1 .511-.703c2.252-2.083 5-2.608 7.927-2.512.258.008.557.213.75.413.485.498.938 1.031 1.364 1.582.12.154.17.433.132.63-.21 1.073-.385 2.16-.708 3.198-.51 1.64-1.133 3.245-1.698 4.867a4.73 4.73 0 0 0-.212.871c-.115.785.156 1.113.927 1.195 1.34.144 2.5-.262 3.476-1.178.525-.493 1.008-1.032 1.505-1.555.434-.457.889-.84 1.548-.418.433.278.628 1.203.392 1.784-.744 1.836-4.783 4.563-6.758 4.562-2.808 0-4.724-2.149-4.182-4.928.447-2.294 1.163-4.534 1.76-6.8l.267-.998m-98.956-.812c.083-1.197-.973-2.05-1.738-1.623-1.692.946-3.348 1.963-4.508 3.625-.67.962-.676 1.985-.337 3.038.255.792.842 1.021 1.515.549 1.656-1.165 3.226-2.446 4.378-4.162.342-.51.544-1.118.69-1.427m-25.413 8.042c1.89.06 3.41-.436 4.585-1.656 1.823-1.893 2.87-4.285 3.786-6.733.123-.325.179-.688.207-1.038.079-.974-.21-1.812-1.007-2.395-.725-.532-1.46-.223-2.092.163-1.06.646-2.077 1.373-3.07 2.124-.267.203-.467.593-.558.937a216.45 216.45 0 0 0-1.586 6.325c-.163.698-.173 1.434-.265 2.273m24.935-2.77c-.904.696-1.717 1.36-2.57 1.967-.627.446-1.269.908-1.968 1.202-1.632.687-3.272.027-4.073-1.606-.296-.603-.457-1.275-.705-1.992-.841.387-1.696.76-2.535 1.168-3.489 1.694-6.96 3.43-10.627 4.699-.68.234-1.366.456-2.062.63-.933.232-1.548.85-1.677 2.014-.43 3.881-.982 7.749-1.381 11.633-.314 3.052-.474 6.12-.692 9.18-.045.621.124 1.347-.671 1.593-.876.272-2.198-.234-2.526-.924-.06-.127-.073-.295-.06-.441.357-4.12.726-8.242 1.08-12.363.162-1.87.32-3.742.434-5.615.167-2.729.861-5.348 1.483-7.987a296.075 296.075 0 0 0 1.655-7.491c.237-1.137.342-2.303.563-3.446.061-.317.252-.76.497-.865 2.206-.941 4.242-2.39 6.652-2.722 3.304-.454 5.263 1.273 5.607 4.722.15 1.51-.05 2.989-.673 4.39-.117.264-.17.558-.319 1.06.662-.208 1.172-.299 1.619-.522 2.178-1.086 4.15-2.418 5.573-4.525 1.417-2.097 3.606-3.218 5.876-3.909 1.668-.509 3.409.132 4.812 1.236.95.747.848 1.89.553 2.955-.348 1.258-.387 2.502-.02 3.75.464 1.57 1.515 2.537 3.043 2.927.278.07.685-.067.931-.252 2.6-1.958 4.251-4.502 4.515-7.874.016-.202.042-.404.07-.605.208-1.534.664-1.94 2.212-1.995.984-.034 1.971-.034 2.949-.132 1.646-.163 2.834 1.513 3.053 2.803.212 1.256.163 2.573.112 3.858-.063 1.595-.326 3.183-.356 4.777-.034 1.758.448 2.097 1.992 1.311 1.019-.52 1.897-1.345 2.803-2.078.425-.343.744-.822 1.16-1.18.195-.167.623-.345.74-.25.216.174.396.553.378.833-.026.385-.187.799-.398 1.127a12.022 12.022 0 0 1-4.747 4.278c-1.204.605-2.525.455-3.746-.114-.248-.116-.514-.453-.559-.723-.22-1.345-.458-2.697-.52-4.055-.06-1.263.132-2.536.14-3.805a11.81 11.81 0 0 0-.221-2.328c-.185-.926-.932-.855-1.646-.847-.674.007-.775.5-.827.966-.416 3.721-2.717 6.295-5.136 8.756-1.11 1.13-2.602 1.306-4.023.687-1.125-.49-2.17-1.2-3.199-1.891-.868-.583-1.662-1.28-2.565-1.986M80.68 14.961c-.87.156-1.438-.166-1.84-.844-.052-.087-.115-.167-.17-.25-1.119-1.692-.87-2.604 1-3.358.906-.364 1.856-.847 2.83-.167.21.147.518.41.5.589-.109 1.023-.175 2.083-.506 3.038-.27.78-1.026 1.155-1.813.992M178.96 7c.943.439 1.911.828 2.807 1.355.203.119.29.765.194 1.09-.384 1.304-1.191 2.217-2.496 2.51-.775.173-1.41-.159-1.861-.813-.61-.887-.808-1.867-.36-2.909.317-.74.89-1.076 1.715-1.233"/></g></svg>